<svg xmlns="http://www.w3.org/2000/svg" viewBox="0 0 274.67 189.65"><defs><style>.cls-1{fill:#fff;}.cls-2{fill:#f1f1f1;}</style></defs><title>Asset 37</title><g id="Layer_2" data-name="Layer 2"><g id="hero_image" data-name="hero image"><path class="cls-1" d="M231.84,188.11a1.18,1.18,0,0,1-.57.54h.22l.28-.41A1.14,1.14,0,0,0,231.84,188.11Z"/><path class="cls-1" d="M231.89,187.11a1.19,1.19,0,0,1,.09.42A1.19,1.19,0,0,0,231.89,187.11Z"/><path class="cls-1" d="M47,188a1.18,1.18,0,0,1-.06-.31A1.17,1.17,0,0,0,47,188Z"/><path class="cls-1" d="M232,187.66a1.18,1.18,0,0,1-.06.3A1.16,1.16,0,0,0,232,187.66Z"/><path class="cls-1" d="M46.89,187.54a1.19,1.19,0,0,1,.09-.42A1.18,1.18,0,0,0,46.89,187.54Z"/><path class="cls-1" d="M47,188.1a1.15,1.15,0,0,0,.06.13l.28.41h.22A1.18,1.18,0,0,1,47,188.1Z"/><path class="cls-1" d="M231.91,188a1.18,1.18,0,0,1-.07.15A1.13,1.13,0,0,0,231.91,188Z"/><path class="cls-1" d="M232,187.56v0a1.2,1.2,0,0,1,0,.12S232,187.6,232,187.56Z"/><path class="cls-1" d="M231.85,187l0,.08Z"/><path class="cls-1" d="M230,188.75h.82a1.19,1.19,0,0,0,.47-.1H230Z"/><path class="cls-1" d="M230.8,186.38h-1l1,1.19-.75,1.09h1.22a1.17,1.17,0,0,0,.7-1,.88.88,0,0,0-.07-.54l0-.08A1.18,1.18,0,0,0,230.8,186.38Z"/><polygon class="cls-1" points="229.3 187.63 228.6 188.65 230.05 188.65 230.8 187.56 229.8 186.38 228.25 186.38 229.3 187.63"/><polygon class="cls-1" points="228.6 188.65 228.53 188.75 229.98 188.75 230.05 188.65 228.6 188.65"/><path class="cls-1" d="M204.14,188.65h-1.35A1.16,1.16,0,0,0,204.14,188.65Z"/><path class="cls-1" d="M140.41,188.35l0,.06,0,0a1.18,1.18,0,0,0,.2-.34,1.21,1.21,0,0,1-.08.14Z"/><path class="cls-1" d="M47,187.11l0-.07Z"/><path class="cls-1" d="M47,188.1A1.22,1.22,0,0,1,47,188,1.16,1.16,0,0,0,47,188.1Z"/><path class="cls-1" d="M46.88,187.56s0,.06,0,.09,0-.07,0-.11Z"/><path class="cls-1" d="M47.6,188.65a1.19,1.19,0,0,0,.47.1h.82l-.07-.1Z"/><path class="cls-1" d="M47.6,188.65h1.22l-.75-1.09,1-1.19h-1A1.18,1.18,0,0,0,47,187l0,.07a1.19,1.19,0,0,0-.09.42s0,.07,0,.11A1.18,1.18,0,0,0,47,188a1.22,1.22,0,0,0,.07.14A1.18,1.18,0,0,0,47.6,188.65Z"/><polygon class="cls-1" points="50.27 188.65 48.82 188.65 48.89 188.75 50.34 188.75 50.27 188.65"/><polygon class="cls-1" points="49.57 187.63 50.62 186.38 49.07 186.38 48.07 187.56 48.82 188.65 50.27 188.65 49.57 187.63"/><path class="cls-1" d="M138.33,188.13v0Z"/><path class="cls-1" d="M140.54,188.12h0Z"/><path class="cls-1" d="M140.14,188.65h.05l.14-.19A1.16,1.16,0,0,1,140.14,188.65Z"/><path class="cls-1" d="M138.48,188.41h0l.18.24h.06A1.19,1.19,0,0,1,138.48,188.41Z"/><path class="cls-1" d="M139.49,188.87h-.11a1.15,1.15,0,0,1-.64-.23h-.06l.76,1,.76-1h-.05A1.14,1.14,0,0,1,139.49,188.87Z"/><path class="cls-1" d="M138.43,188.33v0Z"/><path class="cls-1" d="M139.43,188.88h0Z"/><path class="cls-1" d="M140.59,187.45a1.18,1.18,0,0,1,0,.41A1.19,1.19,0,0,0,140.59,187.45Z"/><path class="cls-1" d="M139.69,188.85l-.2,0a1.14,1.14,0,0,0,.65-.23h0A1.18,1.18,0,0,1,139.69,188.85Z"/><path class="cls-1" d="M140.46,188.26a1.21,1.21,0,0,0,.08-.14h0a1.18,1.18,0,0,0,0-.15A1.19,1.19,0,0,1,140.46,188.26Z"/><path class="cls-1" d="M140.41,188.35a1.18,1.18,0,0,1-.28.3h0a1.16,1.16,0,0,0,.2-.19l0,0Z"/><path class="cls-1" d="M76.07,188.65H74.72A1.16,1.16,0,0,0,76.07,188.65Z"/><path class="cls-1" d="M140.46,188.26l0,.09Z"/><path class="cls-1" d="M140.6,187.86s0,.07,0,.1S140.59,187.9,140.6,187.86Z"/><path class="cls-1" d="M138.33,188.13a1.2,1.2,0,0,0,.09.18l0-.05A1.2,1.2,0,0,1,138.33,188.13Z"/><path class="cls-1" d="M138.43,188.33l.05.08,0-.06Z"/><path class="cls-1" d="M138.45,188.35l0,.06a1.19,1.19,0,0,0,.25.24h0A1.18,1.18,0,0,1,138.45,188.35Z"/><path class="cls-1" d="M138.73,188.65h0a1.15,1.15,0,0,0,.64.23l-.21,0A1.18,1.18,0,0,1,138.73,188.65Z"/><path class="cls-1" d="M138.26,187.86a1.18,1.18,0,0,1,0-.41A1.18,1.18,0,0,0,138.26,187.86Z"/><path class="cls-1" d="M138.29,188a1.16,1.16,0,0,0,0,.13v0a1.2,1.2,0,0,0,.07.13A1.19,1.19,0,0,1,138.29,188Z"/><path class="cls-1" d="M139.49,188.87h0Z"/><path class="cls-1" d="M138.4,188.26l0,.05v0l0,0Z"/><path class="cls-1" d="M138.29,188s0-.07,0-.1A1.06,1.06,0,0,0,138.29,188Z"/><path class="cls-1" d="M140.13,188.65h-1.39a1.18,1.18,0,0,0,.44.2l.21,0h.11l.2,0A1.18,1.18,0,0,0,140.13,188.65Z"/><path class="cls-1" d="M171.88,188.83a1.17,1.17,0,0,0,.34-.18h-1.37A1.15,1.15,0,0,0,171.88,188.83Z"/><path class="cls-1" d="M107,188.83a1.15,1.15,0,0,0,1-.18h-1.36A1.17,1.17,0,0,0,107,188.83Z"/><path class="cls-1" d="M138,78.41,137.18,81l1.91-2.28L141,81l-.77-2.62a1.18,1.18,0,0,0-.73-.77l-.07,0a1.08,1.08,0,0,0-.69,0l-.07,0A1.18,1.18,0,0,0,138,78.41Z"/><polygon points="139.09 80.59 141.85 83.88 141.01 81.03 139.09 78.75 137.18 81.03 136.34 83.88 139.09 80.59"/><path class="cls-1" d="M148.11,153.25a1.19,1.19,0,0,1,.34.06A1.21,1.21,0,0,0,148.11,153.25Z"/><path class="cls-1" d="M147.76,153.31a1.19,1.19,0,0,1,.34-.06A1.2,1.2,0,0,0,147.76,153.31Z"/><path class="cls-1" d="M148.45,153.31l.07,0Z"/><path class="cls-1" d="M147.69,153.33l.07,0Z"/><path class="cls-1" d="M47.74,186.55h1L137.18,81l.77-2.62a1.18,1.18,0,0,1,.73-.77,1.16,1.16,0,0,0-.5.34L46.83,187a1.19,1.19,0,0,0-.14.25A1.18,1.18,0,0,1,47.74,186.55Z"/><path class="cls-1" d="M140.24,78.41,141,81l88.46,105.53h1a1.18,1.18,0,0,1,1.05.66,1.19,1.19,0,0,0-.14-.24L140,78a1.16,1.16,0,0,0-.5-.34A1.18,1.18,0,0,1,140.24,78.41Z"/><polygon class="cls-1" points="227.92 186.56 229.47 186.55 141.01 81.03 141.85 83.88 227.92 186.56"/><polygon class="cls-1" points="136.34 83.88 137.18 81.03 48.73 186.55 50.28 186.56 136.34 83.88"/><path class="cls-1" d="M200.56,186.59l-28.47,0,.26.89a1.18,1.18,0,0,1-.47,1.3h30.57a1.15,1.15,0,0,1-.25-.21Z"/><path class="cls-1" d="M227.92,186.56l-24.29,0,.42.52a1.19,1.19,0,0,1-.18,1.68l-.07,0h24.46l.7-1Z"/><path class="cls-1" d="M170.07,188.2l-.46-1.57-29,0-.33,1.45a1.23,1.23,0,0,1-.05.17h0a1.18,1.18,0,0,1-.2.34l-.14.19h30.66A1.19,1.19,0,0,1,170.07,188.2Z"/><polygon class="cls-1" points="155.86 131.5 200.56 186.59 203.63 186.59 154.11 125.56 155.86 131.5"/><path class="cls-1" d="M202.2,188.62a1.15,1.15,0,0,0,.25.21h1.35l.07,0a1.19,1.19,0,0,0,.18-1.68l-.42-.52h-3.07Z"/><polygon class="cls-1" points="140.04 186.68 140.59 186.67 153.2 130.88 151.82 126.19 139.1 182.48 140.04 186.68"/><path class="cls-1" d="M140.25,187.6s0,0,0,0a1.19,1.19,0,0,1,0,.41s0,.07,0,.1a1.19,1.19,0,0,1,0,.15,1.23,1.23,0,0,0,.05-.17l.33-1.45H140Z"/><path class="cls-1" d="M74.31,188.79a1.19,1.19,0,0,1-.18-1.68l.42-.52-24.28,0-1,1.25.7,1H74.38Z"/><path class="cls-1" d="M138.15,188.58l-.05-.08v0a1.2,1.2,0,0,1-.09-.18v0a1.21,1.21,0,0,1,0-.15l-.33-1.45-29,0-.46,1.57a1.18,1.18,0,0,1-.45.62h30.66l-.18-.24Z"/><path class="cls-1" d="M105.84,187.53l.26-.89-28.47,0-1.64,2a1.15,1.15,0,0,1-.25.21h30.58A1.18,1.18,0,0,1,105.84,187.53Z"/><polygon class="cls-1" points="122.33 131.5 124.07 125.56 74.56 186.59 77.63 186.59 122.33 131.5"/><path class="cls-1" d="M77.63,186.59H74.56l-.42.52a1.19,1.19,0,0,0,.18,1.68l.07,0h1.35a1.15,1.15,0,0,0,.25-.21Z"/><polygon class="cls-1" points="137.61 186.67 138.15 186.68 139.1 182.48 126.37 126.19 125 130.87 137.61 186.67"/><polygon class="cls-1" points="139.1 186.68 139.1 186.68 140.04 186.68 139.1 182.48 138.15 186.68 139.09 186.68 139.1 186.68"/><path class="cls-1" d="M139.1,186.68a1.18,1.18,0,0,1,1.06.66,1.15,1.15,0,0,1,.09.28s0,0,0,0l-.21-.93h-.95Z"/><path class="cls-1" d="M137.93,188a1.18,1.18,0,0,1,0-.41s0,0,0,0l.21-.93h-.54l.33,1.45a1.21,1.21,0,0,0,0,.15,1.18,1.18,0,0,1,0-.13S137.93,188.07,137.93,188Z"/><path class="cls-1" d="M137.94,187.62a1.15,1.15,0,0,1,.09-.28,1.18,1.18,0,0,1,1.06-.66h-.95l-.21.93S137.94,187.61,137.94,187.62Z"/><path class="cls-1" d="M139.1,186.68a1.18,1.18,0,0,0-1.06.66,1.15,1.15,0,0,0-.09.28,1.18,1.18,0,0,0,0,.41s0,.07,0,.1a1.19,1.19,0,0,0,.12.3l0,.09a1.18,1.18,0,0,0,.28.3h1.39a1.18,1.18,0,0,0,.28-.3l0-.09a1.18,1.18,0,0,0,.12-.3s0-.07,0-.1a1.18,1.18,0,0,0,0-.41,1.15,1.15,0,0,0-.09-.28A1.18,1.18,0,0,0,139.1,186.68Z"/><path class="cls-1" d="M124.22,125.34a1.17,1.17,0,0,1,.23-.22h0a1.15,1.15,0,0,1,.41-.19h0a1.1,1.1,0,0,1,.26,0,1.14,1.14,0,0,1,.65.22l.08,0h0l.05.07a1.21,1.21,0,0,1,.22.28,1.24,1.24,0,0,1,.07.17,1.22,1.22,0,0,1,.07.18l.07.33,12.72-45.7,12.73,45.71.07-.34a1.22,1.22,0,0,1,.07-.18,1.24,1.24,0,0,1,.07-.17,1.21,1.21,0,0,1,.23-.29l0-.06h0l.12-.07a1.13,1.13,0,0,1,.62-.2,1.1,1.1,0,0,1,.26,0h0a1.15,1.15,0,0,1,.41.19h0a1.17,1.17,0,0,1,.23.22l.14.18L141.85,81.45,139.09,78l-2.75,3.47-12.27,44.07Z"/><polygon class="cls-1" points="153.2 130.88 169.61 186.63 172.09 186.63 155.86 131.5 153.67 128.79 153.2 130.88"/><polygon class="cls-1" points="124.09 129.89 107.68 185.65 105.2 185.65 121.43 130.51 123.62 127.81 124.09 129.89"/><path class="cls-1" d="M172.35,187.53l-.26-.89h-2.48l.46,1.57a1.19,1.19,0,0,0,.45.62h1.37A1.18,1.18,0,0,0,172.35,187.53Z"/><path class="cls-1" d="M152,125.71a1.21,1.21,0,0,1,.07-.16A1.13,1.13,0,0,0,152,125.71Z"/><path class="cls-1" d="M153.32,125a1.19,1.19,0,0,1,.41.18A1.18,1.18,0,0,0,153.32,125Z"/><path class="cls-1" d="M154.21,126.4l-.54,2.39,2.19,2.7-1.75-5.94-.14-.17a1.15,1.15,0,0,0-.23-.21A1.19,1.19,0,0,1,154.21,126.4Z"/><path class="cls-1" d="M152.3,125.21l0,.06.06-.06Z"/><path class="cls-1" d="M152.43,125.14a1.18,1.18,0,0,1,.62-.19A1.18,1.18,0,0,0,152.43,125.14Z"/><path class="cls-1" d="M153.67,128.79l-1.54-1.9a1.18,1.18,0,0,1-.16-1.18,1.12,1.12,0,0,0-.07.17l-.07.32,1.38,4.68Z"/><path class="cls-1" d="M152.31,125.21l.12-.07Z"/><path class="cls-1" d="M153.73,125.17h0Z"/><path class="cls-1" d="M153.31,125a1.16,1.16,0,0,0-.26,0,1.22,1.22,0,0,1,.27,0Z"/><path class="cls-1" d="M152,125.54a1.18,1.18,0,0,1,.23-.27A1.16,1.16,0,0,0,152,125.54Z"/><path class="cls-1" d="M152.13,126.89l1.54,1.9.54-2.39a1.19,1.19,0,0,0-.46-1.22h0a1.19,1.19,0,0,0-.41-.18,1.22,1.22,0,0,0-.27,0,1.18,1.18,0,0,0-.62.19l-.12.07-.06.06a1.18,1.18,0,0,0-.23.27,1.21,1.21,0,0,0-.07.16A1.18,1.18,0,0,0,152.13,126.89Z"/><path class="cls-1" d="M108.12,188.2l.46-1.57H106.1l-.26.89a1.18,1.18,0,0,0,.47,1.3h1.36A1.18,1.18,0,0,0,108.12,188.2Z"/><path class="cls-1" d="M125.89,125.21h0l.06.07Z"/><path class="cls-1" d="M126.17,125.54a1.19,1.19,0,0,1,.07.16A1.13,1.13,0,0,0,126.17,125.54Z"/><path class="cls-1" d="M124.53,128.79,124,126.4a1.19,1.19,0,0,1,.46-1.22,1.15,1.15,0,0,0-.23.21l-.15.18-1.75,5.94Z"/><path class="cls-1" d="M125.14,125a1.18,1.18,0,0,1,.65.21A1.18,1.18,0,0,0,125.14,125Z"/><path class="cls-1" d="M124.46,125.17a1.18,1.18,0,0,1,.41-.18A1.18,1.18,0,0,0,124.46,125.17Z"/><path class="cls-1" d="M124.88,125h0a1.22,1.22,0,0,1,.27,0A1.17,1.17,0,0,0,124.88,125Z"/><path class="cls-1" d="M124.45,125.18h0Z"/><path class="cls-1" d="M125.8,125.16l.08,0Z"/><path class="cls-1" d="M126.07,126.89l-1.54,1.9.47,2.08,1.38-4.69-.07-.31a1.12,1.12,0,0,0-.07-.17A1.18,1.18,0,0,1,126.07,126.89Z"/><path class="cls-1" d="M125.94,125.28a1.19,1.19,0,0,1,.22.27A1.16,1.16,0,0,0,125.94,125.28Z"/><path class="cls-1" d="M124,126.4l.54,2.39,1.54-1.9a1.18,1.18,0,0,0,.16-1.18.89.89,0,0,0-.29-.43l-.06-.07-.08,0a1.18,1.18,0,0,0-.65-.21,1.22,1.22,0,0,0-.27,0,1.18,1.18,0,0,0-.41.18h0A1.19,1.19,0,0,0,124,126.4Z"/><path class="cls-2" d="M58.4,81.54l0-.27c0-.1-.12-.09-.17-.16l-1.83-1.53L54.53,78c-.08,0-.08-.14-.18-.14h-.27l-.46,0a4.13,4.13,0,0,0-.43,0s0,.17,0,.42,0,.29.07.45l0,.27c0,.09.13.08.18.15l1.83,1.53,1.83,1.53c.08,0,.08.15.19.14h.27c.17,0,.33,0,.45,0l.42,0s0-.16,0-.42S58.44,81.71,58.4,81.54Z"/><path class="cls-2" d="M44.92,70.24l-.73-.84a11.49,11.49,0,0,0-.93-.79l-9.59-8-9.58-8c-.34-.25-.61-.57-.94-.78l-1-.57c-.6-.36-1.13-.66-1.57-.91-.88-.5-1.39-.76-1.39-.76s.36.46,1,1.23c.32.39.72.85,1.18,1.38l.74.84c.26.29.62.49.93.79l9.58,8,9.58,8a10.11,10.11,0,0,0,.95.77l1,.57c.6.36,1.13.66,1.57.91.87.5,1.39.77,1.39.77s-.36-.45-1-1.23C45.78,71.23,45.39,70.76,44.92,70.24Z"/><path class="cls-2" d="M211.3,119.83l-5.85,1.57c-2.07.54-4.19,1.27-6.44,1.93l.46,1.5c2.23-.7,4.41-1.26,6.43-2l5.75-1.93,9.34-3.13,2.87-1c0-.13,0-.27,0-.4l-3.06.81Z"/><path class="cls-2" d="M39.06,89.49l-8.71-4.6-7.61-4,7.31,4.5,8.41,5.13,5.18,3.15c1.83,1.11,3.81,2.15,5.83,3.33l.78-1.37c-2-1.14-4-2.31-5.84-3.32Z"/><path class="cls-2" d="M56.84,116.45l-8.42-2.58-7.35-2.21,7.15,2.78,8.22,3.14,5.05,1.93c1.79.67,3.7,1.25,5.67,2l.51-1.49c-2-.66-3.85-1.38-5.67-1.95Z"/><path class="cls-2" d="M20.58,104.81l-.21-.25c-.07-.1-.19,0-.28-.1l-2.93-.91-2.91-1.09c-.11,0-.18-.13-.29-.1l-.32.07a5.35,5.35,0,0,0-.52.13c-.3.08-.47.15-.47.15s.09.17.26.42a5.41,5.41,0,0,0,.31.44l.2.26c.07.09.19.05.28.11L16.62,105l3,.94c.11,0,.19.12.3.08l.31-.09c.2,0,.37-.11.52-.15l.45-.17s-.11-.16-.29-.4S20.72,105,20.58,104.81Z"/><path class="cls-2" d="M6.7,99.72c0-.07-.08-.15-.11-.23s-.13,0-.19-.08l-2-.69-2-.7c-.08,0-.12-.1-.2-.06l-.23.1c-.14.06-.27.13-.38.19l-.35.2s0,.15.15.37a3.43,3.43,0,0,0,.18.39l.11.22c0,.08.13,0,.19.07l2,.7,2,.7c.08,0,.11.1.2.06l.23-.11a3.71,3.71,0,0,0,.38-.18,3.78,3.78,0,0,0,.34-.19s0-.15-.15-.37A3.83,3.83,0,0,0,6.7,99.72Z"/><path class="cls-2" d="M32.16,127.17l-11.91-1.3L9.88,124.78l10.3,1.69L32,128.36l7.27,1.16c2.56.4,5.28.69,8.09,1.09l.21-1.56c-2.82-.36-5.51-.8-8.09-1.09Z"/><path class="cls-2" d="M251.43,158.3l-7.27-1.2c-2.56-.43-5.27-.73-8.09-1.15l-18.7-2.61a5.73,5.73,0,0,0-.62,1.5l19.1,2.67c2.82.37,5.51.83,8.09,1.12l7.32.84,11.9,1.36L273.54,162l-10.29-1.74Z"/><path class="cls-2" d="M273.28,133.91l-.46-.15c-.16-.06-.32,0-.5,0l-5.07.28-5.07.28c-.17,0-.34,0-.5,0l-.44.2c-.27.12-.52.25-.71.34-.39.21-.62.34-.62.34s.24.11.65.27c.21.08.46.18.74.26l.46.15c.16.05.32,0,.49,0l5.07-.28,5.07-.28c.17,0,.34,0,.5,0l.44-.2c.27-.12.51-.24.71-.34l.62-.33-.65-.26Z"/><path class="cls-2" d="M241.29,135.88,237,136c-1.52,0-3.12.22-4.79.32l-10.77.75c-1.21.09-2.45.16-3.71.23a1.87,1.87,0,0,0-.21,1.58c1.36-.07,2.71-.16,4-.25l10.77-.75c1.67-.14,3.28-.16,4.79-.34l4.3-.49,7-.78,6.1-.72-6.14.13Z"/><path class="cls-2" d="M47.12,146.37l-31.18,1.44c-1.06.07-2.08,0-3.05.15l-2.74.3-4.46.5-3.88.48,3.91.13,4.49.09,2.76,0c1,0,2-.11,3.05-.14l31.18-1.44,24-1.23a4.26,4.26,0,0,0-.21-1.56Z"/><path class="cls-2" d="M268.15,107.16l-.78,0a4.7,4.7,0,0,0-.82.19l-8.35,2.09-8.42,1.91a7.64,7.64,0,0,0-.82.19l-.7.34c-.45.21-.83.4-1.14.57-.63.33-1,.54-1,.54s.41,0,1.12.06c.36,0,.79,0,1.28,0h.78a7.63,7.63,0,0,0,.83-.18l8.42-1.91,8.4-2.1a5.39,5.39,0,0,0,.82-.22l.69-.35c.44-.22.81-.42,1.13-.59.62-.34,1-.55,1-.55s-.41,0-1.12,0Z"/><path class="cls-2" d="M50,161.88l-.81,0a5.88,5.88,0,0,0-.86.2l-8.76,2.17-8.76,2.16a7.73,7.73,0,0,0-.85.21l-.73.37c-.46.22-.86.43-1.18.6-.65.35-1,.57-1,.57s.43,0,1.17,0c.37,0,.82,0,1.33,0l.82,0a7.55,7.55,0,0,0,.85-.21L40,165.79l8.75-2.16a6,6,0,0,0,.86-.23l.73-.36c.46-.22.86-.43,1.18-.6.66-.35,1-.56,1-.56s-.43,0-1.16,0C51,161.86,50.55,161.86,50,161.88Z"/><path class="cls-2" d="M19.12,169.53h-.69a4.27,4.27,0,0,0-.71.17l-7.3,1.81-7.3,1.8a4.59,4.59,0,0,0-.72.18l-.6.33c-.38.2-.7.39-1,.55-.54.32-.83.52-.83.52s.36,0,1,.07c.31,0,.69,0,1.12,0h.69a5.24,5.24,0,0,0,.71-.17l7.3-1.8,7.3-1.8a4.86,4.86,0,0,0,.71-.19l.6-.33c.38-.2.71-.39,1-.55.54-.31.84-.51.84-.51s-.36,0-1-.06C19.93,169.55,19.55,169.53,19.12,169.53Z"/><path class="cls-2" d="M221,99.13l-4,1.63c-1.43.56-2.86,1.3-4.41,2l-8,3.61a2.8,2.8,0,0,0,0,1.72l8.64-3.91c1.52-.71,3-1.3,4.4-2l3.9-2L227.85,97l5.51-2.81-5.74,2.27Z"/><path class="cls-2" d="M234.83,65.73l-.48.14c-.18,0-.26.21-.42.29l-4.24,3.11-4.24,3.11c-.13.12-.32.16-.41.3l-.27.42c-.18.26-.31.5-.43.69-.23.39-.35.63-.35.63s.26,0,.71-.14c.22-.05.49-.11.79-.2l.48-.13c.17,0,.26-.21.42-.3l4.24-3.11,4.24-3.11c.13-.13.32-.16.41-.32l.27-.42c.17-.26.31-.49.43-.69.24-.39.35-.63.35-.63s-.26,0-.7.15Z"/><path class="cls-2" d="M218.17,77.93h-.31c-.11,0-.14.11-.23.15l-2.28,1.66-2.27,1.66c-.06.07-.18.06-.22.17s-.07.19-.1.28-.11.35-.15.48-.1.46-.1.46l.46,0c.15,0,.32,0,.51,0h.31c.1,0,.13-.12.22-.16L216.28,81l2.28-1.66c.06-.08.19-.06.22-.17l.1-.29c.06-.18.11-.35.15-.49s.11-.45.11-.45l-.46,0Z"/><path class="cls-2" d="M225.84,39.38l-1.07.89c-.38.3-.67.73-1.05,1.1L213,52.74,202.35,64.12c-.35.4-.75.72-1,1.11l-.82,1.12c-.52.7-1,1.32-1.31,1.84-.72,1-1.12,1.63-1.12,1.63s.58-.43,1.56-1.22c.49-.38,1.09-.86,1.75-1.42l1.07-.88c.37-.31.67-.73,1-1.11l10.68-11.37,10.68-11.37c.34-.4.75-.72,1-1.12l.82-1.12L228,38.37c.72-1,1.12-1.62,1.12-1.62s-.57.43-1.55,1.22Z"/><path class="cls-2" d="M189.34,47.3l-1.41,1.88c-.51.66-.9,1.43-1.41,2.19L173.06,72.44a3.65,3.65,0,0,1,1.39.74l13.38-21c.47-.78,1-1.46,1.39-2.2l1.11-2.08,1.8-3.38c1-1.87,1.54-3,1.54-3s-.76,1-2,2.65Z"/><path class="cls-2" d="M175.1,24.25l-.48.62a5.2,5.2,0,0,0-.33.77c-.46,1.08-1,2.34-1.49,3.7s-1,2.83-1.56,4.29l-1.5,4.28c-.47,1.37-1,2.62-1.35,3.69a7.24,7.24,0,0,0-.29.77c0,.27-.09.52-.12.76-.08.48-.14.9-.18,1.24-.09.7-.12,1.1-.12,1.1s.26-.31.68-.87c.21-.28.47-.62.74-1l.45-.63a6.19,6.19,0,0,0,.3-.79c.41-1.1.9-2.38,1.37-3.75s1-2.82,1.5-4.28,1-2.91,1.55-4.25,1-2.59,1.46-3.64a5.22,5.22,0,0,0,.3-.76c.05-.27.11-.51.16-.74.1-.47.18-.88.25-1.22.13-.69.19-1.09.19-1.09s-.27.3-.73.83C175.67,23.53,175.4,23.86,175.1,24.25Z"/><path class="cls-2" d="M161.82,59.34l-.65,1.11c-.23.39-.33.85-.54,1.3l-.85,2.08a9.26,9.26,0,0,0,1.27,1.06l1-2.54c.16-.46.41-.87.52-1.31s.22-.86.32-1.25c.19-.79.36-1.47.5-2,.27-1.13.4-1.79.4-1.79s-.36.57-1,1.56Z"/><path class="cls-2" d="M156.55,1.33c-.06-.27-.13-.51-.19-.7-.12-.4-.21-.62-.21-.62s-.15.19-.38.52c-.12.17-.26.38-.4.61l-.24.38c-.09.14,0,.3-.09.45-.2,1.25-.47,2.92-.75,4.59l-.75,4.59c0,.16-.1.29-.07.45l.11.43c.06.27.13.51.19.71.12.39.21.62.21.62s.16-.19.4-.53c.12-.17.26-.37.4-.61l.24-.38c.08-.13,0-.3.07-.45l.75-4.59.74-4.6c0-.16.11-.29.06-.45Z"/><path class="cls-2" d="M152.14,21.92c-.17.44-.39,1-.61,1.58l-.37,1c-.13.34-.12.73-.23,1.11L148.73,37l-2.2,11.39a10.93,10.93,0,0,0-.21,1.11c0,.36,0,.71,0,1,0,.65,0,1.22,0,1.69,0,.94,0,1.48,0,1.48s.22-.5.57-1.37c.17-.44.39-1,.61-1.58l.37-1c.13-.34.12-.73.22-1.12.6-3.11,1.4-7.25,2.2-11.39l2.2-11.39a9.1,9.1,0,0,0,.2-1.12c0-.37,0-.71,0-1,0-.65,0-1.22,0-1.69,0-.94,0-1.48,0-1.48S152.49,21.05,152.14,21.92Z"/><path class="cls-2" d="M129.75,19.43c0-2.2-.06-4.39-.08-6,0-.21,0-.4,0-.59l-.18-.53c-.11-.33-.22-.62-.31-.86-.19-.47-.31-.75-.31-.75s-.12.28-.29.76c-.09.24-.19.54-.29.87l-.17.53c-.07.19,0,.38,0,.59,0,1.64.05,3.84.08,6s.06,4.39.09,6a3.18,3.18,0,0,0,0,.59l.18.53c.11.33.23.63.31.86.19.48.32.75.32.75s.12-.28.29-.76c.09-.24.19-.53.29-.87l.17-.54c.06-.18,0-.38,0-.59C129.81,23.82,129.78,21.63,129.75,19.43Z"/><path class="cls-2" d="M130,42.75q-.1-1-.2-1.83c-.13-1.15-.24-2.15-.34-3l-.33-2.59-.26,2.6c-.07.83-.16,1.83-.26,3,0,.58-.1,1.19-.15,1.84s0,1.32,0,2c0,3.72.11,8.27.17,13.09l.54.17a7.34,7.34,0,0,0,1,.2c-.06-5-.12-9.65-.18-13.47C130.06,44.07,130.13,43.39,130,42.75Z"/><path class="cls-2" d="M112.12,50.7l-1.36-5.85-2.21-9.51-2-8.28L108,35.45l1.63,9.63c.31,1.86.65,3.84,1,5.92s.86,4.25,1.3,6.53c.31,1.54.74,3.66,1.25,6.16a3.54,3.54,0,0,1,1.61,0c-.54-2.65-1-4.88-1.32-6.49C113,55,112.61,52.75,112.12,50.7Z"/><path class="cls-2" d="M77.36,12.5,76.18,9.67c-.07-.09,0-.21-.13-.27l-.27-.18a5.1,5.1,0,0,0-.44-.29c-.26-.16-.42-.24-.42-.24s-.06.17-.12.46-.08.33-.11.53l-.06.31c0,.12.09.17.1.28L75.9,13.1l1.17,2.83c.06.08,0,.21.12.27l.27.18c.16.12.32.21.45.29a4.82,4.82,0,0,0,.43.23s.06-.17.13-.47.08-.32.11-.52l.06-.32c0-.11-.09-.17-.11-.28Z"/><path class="cls-2" d="M82.8,25.67l-1-2.43c-.06-.08,0-.19-.11-.23l-.25-.15L81,22.63c-.25-.13-.4-.19-.4-.19s-.06.16-.15.42-.09.29-.13.46l-.07.28c0,.1.08.15.09.24l1,2.43,1,2.43c.06.07,0,.18.1.24l.25.15.42.23c.25.13.41.19.41.19s.07-.16.16-.42.09-.29.14-.46,0-.18.07-.28-.08-.15-.09-.24Z"/><path class="cls-2" d="M90.57,45.78,86,35.56,90,46l4.62,12,1.56,4a9.48,9.48,0,0,0,1.72.49l-2.18-5Z"/><path class="cls-2" d="M78.73,56.2l-.28-.76a7.1,7.1,0,0,0-.46-.75l-4.75-7.63-4.75-7.63a5.83,5.83,0,0,0-.48-.74l-.56-.58c-.35-.37-.68-.68-.94-.94-.53-.51-.85-.79-.85-.79s.12.41.34,1.11c.11.35.25.77.42,1.25l.27.77a5.74,5.74,0,0,0,.45.75l4.75,7.63,4.75,7.63a6.85,6.85,0,0,0,.47.75l.56.58c.35.37.68.68.94.93.53.51.85.79.85.79s-.11-.41-.33-1.12C79,57.1,78.9,56.68,78.73,56.2Z"/><path class="cls-2" d="M83.51,88.45l-1.09-1.52c-.39-.53-.9-1-1.35-1.56L67.25,69.44,53.42,53.5c-.49-.53-.88-1.1-1.36-1.55l-1.35-1.29L48.5,48.57l-2-1.8L48,49l1.75,2.48L50.89,53c.37.54.89,1,1.34,1.57L66.06,70.46,79.88,86.4c.49.53.88,1.1,1.36,1.56l1.35,1.29,2.21,2.09c1.24,1.15,2,1.79,2,1.79s-.54-.81-1.5-2.19Z"/></g></g></svg>