<svg xmlns="http://www.w3.org/2000/svg" viewBox="0 0 24.74 24.74"><defs><style>.cls-1{fill:none;stroke:#000;stroke-miterlimit:10;}</style></defs><title>icon-swim</title><g id="Layer_2" data-name="Layer 2"><g id="desktop-home-search-results"><circle class="cls-1" cx="12.37" cy="12.37" r="11.87"/><path d="M9,8.74c2.13-.47,3.66.35,5,2a45.76,45.76,0,0,0,3.43,3.55c.2.2.47.4.53.64a3.73,3.73,0,0,1,0,1c-.3,0-.69.1-.87-.05a1,1,0,0,0-1.56.05,1.35,1.35,0,0,1-1.92-.07.91.91,0,0,0-1.44,0,1.24,1.24,0,0,1-1.79,0c-.68-.67-1.17-.39-1.8,0a1.47,1.47,0,0,1-1.16.15A6.71,6.71,0,0,1,6,15.24a9,9,0,0,1,1.05-1c.82-.55,1.67-1.06,2.52-1.56.56-.33,1.15-.73.74-1.41A2.08,2.08,0,0,0,9,10.59a19,19,0,0,0-2.25-.14c-.66,0-1.29-.25-1.23-1s.76-.67,1.32-.68Z"/><path d="M20.91,17.85c-1.54-.13-3-.26-4.37-.36a3.1,3.1,0,0,0-.76.14c-.41.08-.92.35-1.2.2-1.51-.81-3.08.58-4.55-.21-.08,0-.17-.12-.25-.12l-4.18.23a9.46,9.46,0,0,1-1,.1c-.11,0-.3-.24-.29-.36C4.34,17,6.12,16,6.5,16.34a1.67,1.67,0,0,0,2.5,0c.48-.47.82-.17,1.2.15a1.33,1.33,0,0,0,2,0,.77.77,0,0,1,1.29,0,1.38,1.38,0,0,0,2.12,0c.41-.41.74-.5,1.18-.09a1.71,1.71,0,0,0,2.51-.05c.4-.33,2,.59,1.93,1.12C21.23,17.62,21,17.76,20.91,17.85Z"/><path d="M17.54,12.36a2.33,2.33,0,0,1-2.4-2.26,2.37,2.37,0,0,1,2.31-2.49,2.37,2.37,0,1,1,.09,4.74Z"/></g></g></svg>