<svg xmlns="http://www.w3.org/2000/svg" viewBox="0 0 24.35 24.35"><defs><style>.cls-1,.cls-2{stroke:#fff;stroke-width:0.5px;}.cls-1,.cls-2,.cls-3{stroke-miterlimit:10;}.cls-2,.cls-3{fill:none;}.cls-3{stroke:#000;}</style></defs><title>icon-picnic</title><g id="Layer_2" data-name="Layer 2"><g id="desktop-home-search-results"><polygon class="cls-1" points="5.94 16.46 7.91 16.46 9.52 13.64 7.56 13.64 5.94 16.46"/><polygon class="cls-1" points="16.24 16.46 18.2 16.46 16.59 13.64 14.63 13.64 16.24 16.46"/><polygon class="cls-2" points="13.43 11.72 10.19 11.72 11.28 9.8 12.33 9.8 13.43 11.72"/><polygon class="cls-1" points="19.39 11.72 19.39 13.64 4.96 13.64 4.96 11.72 8.22 11.72 9.32 9.8 11.28 9.8 10.19 11.72 13.43 11.72 12.33 9.8 14.29 9.8 15.39 11.72 19.39 11.72"/><polygon class="cls-1" points="6.86 7.89 6.86 9.81 9 9.81 10.96 9.81 12.01 9.81 13.97 9.81 16.85 9.81 16.85 7.89 6.86 7.89"/><circle class="cls-3" cx="12.17" cy="12.17" r="11.67"/></g></g></svg>