<svg xmlns="http://www.w3.org/2000/svg" viewBox="0 0 49.02 42.34"><defs><style>.cls-1{fill:#cbcbcb;}</style></defs><title>icon-gray-heart</title><g id="Layer_2" data-name="Layer 2"><g id="desktop-home-search-results"><path class="cls-1" d="M24.21,42.34c-1.68-1.77-3.31-3.56-5-5.28C14.06,31.9,8.82,26.83,3.76,21.58c-7-7.31-3.73-19,6-21.22A12,12,0,0,1,21.26,3.5c1,1,1.9,2.16,3.15,3.61,1.33-1.48,2.26-2.67,3.35-3.68a12.55,12.55,0,0,1,17.44.21A12.31,12.31,0,0,1,45.63,21C38.75,28.17,31.59,35,24.21,42.34Zm0-6.29C30.57,29.85,36.94,23.91,43,17.63c2.92-3,2.26-8.1-.79-11.05a8.36,8.36,0,0,0-11.85.2c-2,1.89-3.83,3.88-5.95,6-2.19-2.29-4.05-4.42-6.11-6.34a8.26,8.26,0,0,0-11.69.3,8.26,8.26,0,0,0-.09,11.56C12.33,24.34,18.34,30.2,24.21,36.05Z"/></g></g></svg>