<svg xmlns="http://www.w3.org/2000/svg" viewBox="0 0 16.76 16.83"><defs><style>.cls-1{fill:#b2b2b2;}</style></defs><title>icon-gray-star</title><g id="Layer_2" data-name="Layer 2"><g id="desktop-home-search-results"><path class="cls-1" d="M7.35.8c-.59,1.12-1.12,2.27-1.6,3.44a1.37,1.37,0,0,1-1.23.93c-1.18.15-2.35.31-3.52.54C.64,5.78.11,6,0,6.3A1.47,1.47,0,0,0,.39,7.45c.85,1,1.78,1.88,2.69,2.79a1.34,1.34,0,0,1,.44,1.34C3.24,13,3,14.44,2.82,15.8c0,.91.54,1.27,1.31.86,1.24-.65,2.44-1.37,3.68-2L8,14.61V.13A1.93,1.93,0,0,0,7.35.8Z"/><path class="cls-1" d="M16.74,6.32c-.06-.22-.5-.42-.8-.47-1.27-.24-2.55-.45-3.83-.61a1.34,1.34,0,0,1-1.18-.89C10.42,3.16,9.9,2,9.31.83,9.11.47,8.67,0,8.34,0L8.24,0V14.57a1.3,1.3,0,0,1,.64.1c1.2.6,2.35,1.31,3.55,1.91a1.25,1.25,0,0,0,1.06,0,1.28,1.28,0,0,0,.32-1c-.15-1.26-.36-2.51-.61-3.75a1.74,1.74,0,0,1,.55-1.77q1.4-1.34,2.7-2.78A1.22,1.22,0,0,0,16.74,6.32Z"/><path class="cls-1" d="M8,.13V14.61l.25,0V0A.79.79,0,0,0,8,.13Z"/></g></g></svg>