<svg xmlns="http://www.w3.org/2000/svg" viewBox="0 0 49.02 42.34"><defs><style>.cls-1{fill:#28b2b2;}</style></defs><title>icon-heart-blue</title><g id="Layer_2" data-name="Layer 2"><g id="desktop-home-search-results"><path class="cls-1" d="M45.19,3.64a12.56,12.56,0,0,0-17.44-.2c-1.09,1-2,2.2-3.35,3.67-1.25-1.45-2.11-2.63-3.15-3.61A12,12,0,0,0,9.79.36C0,2.61-3.29,14.27,3.76,21.58c5.06,5.25,10.3,10.32,15.43,15.49,1.71,1.71,3.34,3.5,5,5.27C31.59,35,38.75,28.17,45.63,21A12.32,12.32,0,0,0,45.19,3.64ZM43,17.63c-6,6.28-12.41,12.22-18.77,18.42C18.34,30.2,12.33,24.34,6.48,18.32A8.24,8.24,0,0,1,6.57,6.77a8.26,8.26,0,0,1,11.69-.3c2.07,1.91,3.92,4,6.12,6.33,2.11-2.14,4-4.13,5.94-6a8.35,8.35,0,0,1,11.86-.2C45.23,9.53,45.89,14.59,43,17.63Z"/><path class="cls-1" d="M43,17.63c-6,6.28-12.41,12.22-18.77,18.42C18.34,30.2,12.33,24.34,6.48,18.32A8.24,8.24,0,0,1,6.57,6.77a8.26,8.26,0,0,1,11.69-.3c2.07,1.91,3.92,4,6.12,6.33,2.11-2.14,4-4.13,5.94-6a8.35,8.35,0,0,1,11.86-.2C45.23,9.53,45.89,14.59,43,17.63Z"/></g></g></svg>