<svg xmlns="http://www.w3.org/2000/svg" viewBox="0 0 24.74 24.74"><defs><style>.cls-1{fill:none;stroke:#000;stroke-miterlimit:10;}</style></defs><title>icon-fish</title><g id="Layer_2" data-name="Layer 2"><g id="desktop-home-search-results"><circle class="cls-1" cx="12.37" cy="12.37" r="11.87"/><path d="M20.6,13c0,1.58,0,3.16,0,4.74,0,.61-.16.91-.84.9a28.86,28.86,0,0,1-8.41-1.14,4.44,4.44,0,0,1-.88-.35c-.61-.36-1.21-.75-1.81-1.12.6-.35,1.18-.72,1.79-1s1.48-.67,2.21-1c.89-.43.89-.48.05-1.09-.47-.34-1-.65-1.45-1-.71-.52-.71-.54,0-1.19a11.92,11.92,0,0,1,5.93-3.05,14.48,14.48,0,0,1,2.27-.3c1.13-.06,1.15,0,1.16,1.07C20.61,9.94,20.6,11.48,20.6,13Zm-3.34,0a1.9,1.9,0,0,0,1.86-1.9,1.8,1.8,0,0,0-1.84-1.88,1.92,1.92,0,0,0-1.9,1.87A2,2,0,0,0,17.25,13Z"/><path d="M9.93,12.22c-.44.92-.73,1.57-1.07,2.2a2.07,2.07,0,0,1-2.26,1.1A1.78,1.78,0,0,1,5,14.24a2.09,2.09,0,0,1,.68-2.43L10.38,8c.48-.4,1-.73,1.08-1.46a.85.85,0,0,1,1-.72,1.22,1.22,0,0,1,1,1.14c0,.51-.3.94-.8.92a2.35,2.35,0,0,0-1.64.8Q8.8,10.44,6.63,12.26a3.42,3.42,0,0,0-.72.78,1,1,0,0,0,.21,1.23,1.06,1.06,0,0,0,1.34.26.54.54,0,0,0,.2-.17A4.05,4.05,0,0,1,9.93,12.22Z"/></g></g></svg>