<svg xmlns="http://www.w3.org/2000/svg" viewBox="0 0 25.92 40.84"><defs><style>.cls-1{fill:#e9780a;}</style></defs><title>idaho</title><g id="Layer_2" data-name="Layer 2"><g id="HEADER_MOBILE" data-name="HEADER MOBILE"><g id="_7AD8Mk" data-name="7AD8Mk"><path class="cls-1" d="M13.75,19.31l.67,1.41c.28.6.55,1.19.83,1.79.13.27.43.54.4.78-.09.8.28,1.07,1,1.31.33.11.51.7.72,1.1s.36.81.44,1c.74-.12,1.26-.22,1.78-.29,1.22-.16,2.45-.28,3.67-.47.17,0,.33-.33.44-.53.32-.55.64-.62,1.06-.09a3.89,3.89,0,0,1,.94,2.53c0,3.76.14,7.53.23,11.29,0,.49,0,1,0,1.72l-1.22-.45a4.38,4.38,0,0,1-1.27.37c-7.29-.06-14.59-.16-21.88-.22-1,0-1.44-.31-1.34-1.39.34-3.64.64-7.28.92-10.93a.93.93,0,0,0-.37-.77c-1-.41-.86-1.08-.5-1.79C1.13,23.93,2,22.18,3,20.48c.49-.86.48-1.46-.36-2-1.33-.89-1.17-2.37-1.18-3.63,0-3.06.15-6.12.27-9.18C1.76,3.81,1.9,2,2,0,3.15.07,4.27.1,5.37.23c.17,0,.4.49.4.75,0,1.26-.18,2.53-.11,3.79A8.4,8.4,0,0,0,6.34,7c.1.28.39.5.43.78.37,2.59,2.8,3.7,4.06,5.65.21.32.85.37,1.37.57-.14.69-.33,1.46-.43,2.24-.06.51,0,1,0,1.56a1.64,1.64,0,0,1-.19.7c-.49.89-.38,1.43.55,2.11Z"/></g></g></g></svg>