<svg xmlns="http://www.w3.org/2000/svg" viewBox="0 0 253.13 41.45"><defs><style>.cls-1{font-size:35px;fill:#333;font-family:VistaSansNarOTCE-Bold, Vista Sans Nar OTCE;font-weight:700;letter-spacing:0em;}.cls-2{fill:#068183;letter-spacing:0.01em;}.cls-3{fill:#e9780a;}</style></defs><title>Asset 38</title><g id="Layer_2" data-name="Layer 2"><g id="Header"><text class="cls-1" transform="translate(38.13 33.89)">OUTDOOR <tspan class="cls-2" x="132.23" y="0">BOISE</tspan></text><g id="_7AD8Mk" data-name="7AD8Mk"><path class="cls-3" d="M12.49,17.53l.61,1.28c.25.54.5,1.08.76,1.62.12.24.39.49.36.71-.09.73.25,1,.89,1.19.3.1.47.64.66,1s.33.73.4.9c.67-.11,1.14-.2,1.61-.26,1.11-.14,2.23-.26,3.33-.43.16,0,.3-.3.4-.48.29-.5.58-.56,1-.08a3.54,3.54,0,0,1,.85,2.3c0,3.42.13,6.83.21,10.25,0,.45,0,.9,0,1.56l-1.11-.41a4,4,0,0,1-1.15.34C14.64,37,8,36.86,1.4,36.81.5,36.8.1,36.52.19,35.55c.31-3.3.58-6.61.84-9.92a.85.85,0,0,0-.34-.69c-.88-.37-.78-1-.45-1.63.79-1.58,1.57-3.18,2.45-4.71.45-.78.44-1.33-.32-1.84-1.21-.81-1.06-2.15-1.08-3.3,0-2.78.13-5.56.25-8.34.07-1.66.19-3.32.3-5.12,1,.06,2,.09,3,.21.15,0,.37.44.37.68,0,1.15-.17,2.3-.1,3.44a7.63,7.63,0,0,0,.61,2c.09.25.36.46.39.7.33,2.35,2.54,3.36,3.68,5.13.19.29.77.33,1.25.52-.12.63-.3,1.33-.39,2-.06.46,0,.94,0,1.42a1.49,1.49,0,0,1-.18.64c-.44.81-.34,1.3.5,1.91Z"/></g></g></g></svg>